<svg xmlns="http://www.w3.org/2000/svg" viewBox="0 0 95.7 91.6"><defs><style>.cls-1{fill:#baa1de;}.cls-2{fill:#fff;}.cls-3{fill:#ffed4a;}.cls-4{fill:none;stroke:#343a40;stroke-linecap:round;stroke-miterlimit:10;stroke-width:2px;}</style></defs><g id="Слой_2" data-name="Слой 2"><g id="OBJECTS"><path class="cls-1" d="M53.66,14.89a35.68,35.68,0,0,0-35.24,37c.65,18.34,2.1,37.6,5.34,38.76,2.73,1,16.75,1.1,31.77.93a40.57,40.57,0,0,0,40.14-42c-.58-16.54-1.57-32-3.2-33C90.64,15.37,71.9,14.69,53.66,14.89Z"/><circle class="cls-2" cx="56.91" cy="53.75" r="30.09"/><circle class="cls-3" cx="39.11" cy="74.88" r="10.96" transform="translate(-25.83 20.85) rotate(-22.66)"/><circle class="cls-1" cx="56.5" cy="53.94" r="12.95"/><path class="cls-4" d="M1,54.15c.66-.33,9.24,4,29.05-1"/><path class="cls-4" d="M3.31,11.23c2,.33,20.14,3.64,32.35,20.14"/><path class="cls-4" d="M51.18,1S59,14.64,56.91,23.67"/></g></g></svg>