<svg xmlns="http://www.w3.org/2000/svg" viewBox="0 0 103.25 79.97"><defs><style>.cls-1{fill:#baa1de;}.cls-2{fill:#ffed4a;}.cls-3{fill:none;stroke:#343a40;stroke-linecap:round;stroke-miterlimit:10;stroke-width:2px;}</style></defs><g id="Слой_2" data-name="Слой 2"><g id="OBJECTS"><path class="cls-1" d="M0,37.28c-2,9.9,103.55,36.33,101.65,24.9S1.79,28.78,0,37.28Z"/><path class="cls-2" d="M103.16,41.85c-.59.57-4.79.38-11.17-.33,0-5.4-.26-14.34-2.29-14.1s-7.25,8.17-10.07,12.49c-6.1-.88-12.93-2-19.94-3.18,0-5.39-.25-14.45-2.29-14.21s-6.91,7.64-9.78,12c-7.66-1.44-15.14-3-21.72-4.43,0-5.41-.42-12.89-2.28-12.67S18,23.2,15.13,27.53C7.68,25.55,3,23.79,3.19,22.61,3.42,21.25,23,1.91,27.08.08c3.11-1.38,9.85,14.76,11.75,24.34,6.2-7.17,18.73-20,21.72-21.31s8.13,16.81,10.21,26.73C77.07,22.61,89.24,10.2,92.17,8.89,96.29,7.06,104.2,40.85,103.16,41.85Z"/><path class="cls-3" d="M33,74.14c.57-.86,13.49-26,18.32-25.39S59.4,79,59.4,79"/></g></g></svg>