<svg xmlns="http://www.w3.org/2000/svg" viewBox="0 0 87.59 88.64"><defs><style>.cls-1{fill:#f5c1e7;}.cls-2{fill:#baa1de;}.cls-3{fill:none;stroke:#343a40;stroke-linecap:round;stroke-miterlimit:10;stroke-width:2px;}</style></defs><g id="Слой_2" data-name="Слой 2"><g id="OBJECTS"><path class="cls-1" d="M87.59,49.42A39.22,39.22,0,0,1,48.37,88.64c-21.66,0-40.76-18.32-40.76-40s20-29.35,41.64-29.35S87.59,27.76,87.59,49.42Z"/><path class="cls-2" d="M35.65,35.67C27.83,29,27.46,16.61,34.82,8S55.29-2.7,63.11,4s3.81,17-3.55,25.65S43.47,42.33,35.65,35.67Z"/><path class="cls-3" d="M5,72C.48,68.15-.34,61.65,3.2,57.5s10.5-4.56,15-.7,2.89,9.07-.65,13.23S9.55,75.88,5,72Z"/><path class="cls-3" d="M31.84,68.49S45.7,52.13,47.92,53c1.81.68,6.95,14.68,8.78,19.79a1.09,1.09,0,0,0,1.87.32c3.73-4.57,14.83-17.7,17.36-15.4,3,2.77,4.16,20,4.16,20.52"/></g></g></svg>