<svg xmlns="http://www.w3.org/2000/svg" viewBox="0 0 83.37 74.33"><defs><style>.cls-1{fill:#f5c1e7;}.cls-2{fill:none;stroke:#343a40;stroke-linecap:round;stroke-miterlimit:10;stroke-width:2px;}.cls-3{fill:#baa1de;}.cls-4{fill:#ffed4a;}</style></defs><g id="Слой_2" data-name="Слой 2"><g id="OBJECTS"><path class="cls-1" d="M78.24,41.87H10.51a5.14,5.14,0,0,1-5.13-5c-.16-8-.2-14.92-.21-19a5.58,5.58,0,0,1,4.67-5.51c15.9-2.66,66.81-2.06,69.88-.14,1.38.87,2.7,11.35,3.64,24.18A5.14,5.14,0,0,1,78.24,41.87Z"/><path class="cls-1" d="M70.56,74.33H20.37a3.8,3.8,0,0,1-3.8-3.73c-.13-5.9-.15-11.06-.16-14.09a4.13,4.13,0,0,1,3.46-4.08c11.79-2,49.51-1.53,51.79-.11,1,.65,2,8.41,2.69,17.92A3.8,3.8,0,0,1,70.56,74.33Z"/><path class="cls-2" d="M70.56,24.23H20.37a3.8,3.8,0,0,1-3.8-3.73c-.13-5.9-.15-11.06-.16-14.09a4.13,4.13,0,0,1,3.46-4.08C31.66.36,69.38.8,71.66,2.22c1,.65,2,8.41,2.69,17.92A3.8,3.8,0,0,1,70.56,24.23Z"/><rect class="cls-3" x="29.4" y="46.4" width="32.29" height="11.27" rx="3.83"/><rect class="cls-4" x="-10.51" y="37.52" width="32.29" height="11.27" rx="3.83" transform="translate(48.78 37.52) rotate(90)"/></g></g></svg>