<svg xmlns="http://www.w3.org/2000/svg" viewBox="0 0 82.21 92.69"><defs><style>.cls-1{fill:#f5c1e7;}.cls-2{fill:#fff;}.cls-3{fill:#baa1de;}.cls-4{fill:#ffed4a;}.cls-5{fill:none;stroke:#343a40;stroke-linecap:round;stroke-miterlimit:10;stroke-width:2px;}</style></defs><g id="Слой_2" data-name="Слой 2"><g id="OBJECTS"><path class="cls-1" d="M82.21,42.7c0,21.66-19.79,37.38-41.45,37.38S0,61.76,0,40.1,21.4,0,43.06,0,82.21,21,82.21,42.7Z"/><path class="cls-2" d="M64.53,41.36c0,12.54-10.75,27.55-23.38,27.55s-28-11.94-28-24.48S30.38,17.71,43,17.71,64.53,28.83,64.53,41.36Z"/><path class="cls-3" d="M64.39,21.35a10.37,10.37,0,0,1-20.73,0c0-5.67,4.85-8.88,10.57-8.88S64.39,15.68,64.39,21.35Z"/><path class="cls-4" d="M36.91,71c0,10.83-3.25,21.65-9.95,21.65S16.53,79.91,16.53,69.08,20.25,53.5,27,53.5,36.91,60.22,36.91,71Z"/><path class="cls-5" d="M20.81,33A6.89,6.89,0,1,1,7,33c0-3.88,3.26-6,7.06-6S20.81,29.13,20.81,33Z"/></g></g></svg>