<svg xmlns="http://www.w3.org/2000/svg" viewBox="0 0 79.6 78.34"><defs><style>.cls-1{fill:#baa1de;}.cls-2{fill:#fff;}.cls-3{fill:none;stroke:#343a40;stroke-linecap:round;stroke-miterlimit:10;stroke-width:2px;}.cls-4{fill:#ffed4a;}</style></defs><g id="Слой_2" data-name="Слой 2"><g id="OBJECTS"><path class="cls-1" d="M0,3.45S-.44,73.5,5.84,75.74s70.05,4.49,72.75,0-.45-71.84-4-74.09S1.8-1,0,3.45Z"/><path class="cls-2" d="M10.46,13.11s-.33,52.27,4.36,53.94,52.26,3.35,54.27,0-.33-53.6-3-55.28S11.8,9.76,10.46,13.11Z"/><path class="cls-3" d="M35.76,37s-.17,26.2,2.18,27,26.2,1.68,27.21,0S65,37.21,63.64,36.37,36.43,35.37,35.76,37Z"/><path class="cls-4" d="M15,16.77s-.11,16.39,1.36,16.92,16.39,1.05,17,0-.1-16.81-.94-17.34S15.41,15.72,15,16.77Z"/></g></g></svg>