<svg xmlns="http://www.w3.org/2000/svg" viewBox="0 0 104.41 76.39"><defs><style>.cls-1{fill:#f5c1e7;}.cls-2{fill:#baa1de;}.cls-3{fill:none;stroke:#343a40;stroke-linecap:round;stroke-miterlimit:10;stroke-width:2px;}</style></defs><g id="Слой_2" data-name="Слой 2"><g id="OBJECTS"><path class="cls-1" d="M68.3,63.83a50.7,50.7,0,0,1-5.87,4.69,43.57,43.57,0,0,1-28.57,7.71C23,75.3,12.28,70.16,2.86,61.35A9,9,0,1,1,15.19,48.17C27.27,59.47,43,63.92,54.56,56.24c11.87-7.88,16.62-27.09,9.91-43.86A9,9,0,0,1,81.23,5.67,53,53,0,0,1,68.3,63.83Z"/><circle class="cls-2" cx="41.36" cy="37.32" r="12.38" transform="translate(-1.73 2.01) rotate(-2.73)"/><circle class="cls-3" cx="91.03" cy="24.98" r="12.38" transform="translate(-3.02 33.03) rotate(-20.24)"/></g></g></svg>