<svg xmlns="http://www.w3.org/2000/svg" viewBox="0 0 68.98 78.41"><defs><style>.cls-1{fill:#f5c1e7;}.cls-2{fill:none;stroke:#343a40;stroke-linecap:round;stroke-miterlimit:10;stroke-width:2px;}.cls-3{fill:#ffed4a;}</style></defs><g id="Слой_2" data-name="Слой 2"><g id="OBJECTS"><path class="cls-1" d="M22.3,62.41a22.7,22.7,0,0,0,12.53,2.33,29.19,29.19,0,0,0,12.92-4.33,25.94,25.94,0,0,0,9.32-9.84,21.06,21.06,0,0,0,2.17-6.32,33.29,33.29,0,0,0,.38-3.46c0-.59,0-1.17,0-1.76v-.88l-.07-.86A21.82,21.82,0,0,0,55,25a18.79,18.79,0,0,0-10.65-6.62,17.44,17.44,0,0,0-11.9,1.46,15.76,15.76,0,0,0-7.4,8.45A8.1,8.1,0,1,1,10,22.49a7.8,7.8,0,0,1,1-1.85l.32-.43a37,37,0,0,1,7.24-7.55A31.19,31.19,0,0,1,47.42,7.73,30.88,30.88,0,0,1,62.93,19a33,33,0,0,1,6,17.69L69,37.88V39c0,.76,0,1.52-.06,2.28-.14,1.5-.22,3-.51,4.55a32.66,32.66,0,0,1-2.89,8.95,39.46,39.46,0,0,1-11.8,14.12,46.73,46.73,0,0,1-16.63,8,45.92,45.92,0,0,1-19.42.76l-.62-.1a8.15,8.15,0,0,1,2.81-16.06A8.67,8.67,0,0,1,22.3,62.41Z"/><circle class="cls-2" cx="39.32" cy="31.65" r="8.57" transform="translate(-10.86 37.07) rotate(-45)"/><path class="cls-3" d="M14.45,7.23A7.23,7.23,0,1,1,7.23,0,7.22,7.22,0,0,1,14.45,7.23Z"/></g></g></svg>