<svg xmlns="http://www.w3.org/2000/svg" viewBox="0 0 85.63 93.49"><defs><style>.cls-1{fill:#ffed4a;}.cls-2{fill:none;stroke:#343a40;stroke-linecap:round;stroke-miterlimit:10;stroke-width:2px;}.cls-3{fill:#fff;}.cls-4{fill:#baa1de;}</style></defs><g id="Слой_2" data-name="Слой 2"><g id="OBJECTS"><path class="cls-1" d="M63.28,12.57S-5.45,49.83.35,58.11s85.28,44.72,85.28,33.12S74.87,8.43,63.28,12.57Z"/><path class="cls-2" d="M46.36,21.69s-37-25.12-39.68-20S14.12,48.83,20,45.78,51.51,26.49,46.36,21.69Z"/><path class="cls-3" d="M61.59,64.85s-2-22.68-4.78-22S34.87,54.15,37.25,56.37C40.51,59.41,61.56,68.3,61.59,64.85Z"/><path class="cls-4" d="M49.78,90.09s-2.05-22.67-4.79-22S23.06,79.4,25.43,81.61C28.69,84.66,49.74,93.54,49.78,90.09Z"/></g></g></svg>