<svg xmlns="http://www.w3.org/2000/svg" viewBox="0 0 81.78 96.62"><defs><style>.cls-1{fill:#ffed4a;}.cls-2{fill:#baa1de;}.cls-3{fill:none;stroke:#343a40;stroke-linecap:round;stroke-miterlimit:10;stroke-width:2px;}</style></defs><g id="Слой_2" data-name="Слой 2"><g id="OBJECTS"><path class="cls-1" d="M76.43,93.41c0,3.07-6.52,2.29-15.75-.5a9.59,9.59,0,0,1-6.85-8.12c-1.32-12.57-3.56-29.14-6.2-30.21s-17.15,8.19-28,15.53a10.17,10.17,0,0,1-10.69.43C4.39,68,1.25,65.85.31,64.53c-5.18-7.22,56.17-39.71,56.17-39.71C66.83,21.21,76.43,83.31,76.43,93.41Z"/><path class="cls-2" d="M60.67,95.3c0,2-4.46,1.52-10.76-.33a6.43,6.43,0,0,1-4.67-5.42c-.9-8.38-2.43-19.42-4.23-20.14S29.3,74.87,21.87,79.77a7.11,7.11,0,0,1-7.3.29c-3.07-1.71-5.22-3.13-5.86-4C5.18,71.23,47.05,49.57,47.05,49.57,54.11,47.16,60.67,88.57,60.67,95.3Z"/><path class="cls-2" d="M75.62,46.92c0,1.59-3.39,1.19-8.19-.26a5,5,0,0,1-3.57-4.22c-.68-6.53-1.85-15.14-3.22-15.7S51.72,31,46.05,34.81a5.3,5.3,0,0,1-5.56.23A17.37,17.37,0,0,1,36,31.91C33.33,28.16,67.65,9.65,67.65,9.65,73,7.78,75.62,41.67,75.62,46.92Z"/><path class="cls-3" d="M46.94,14.53c0-.3,23-16.35,27.6-13.09,3.09,2.18,6.24,26.18,6.24,26.18"/></g></g></svg>